<svg xmlns="http://www.w3.org/2000/svg" width="180" height="60" viewBox="0 0 180 60"><rect width="100%" height="100%" fill="#00adf4"/><path fill="#ffffff" d="M35.22 23.075h1.86v11.14h-1.86v-11.14Zm7.11 3.33q.86 0 1.56.27.7.28 1.2.79t.77 1.25q.27.73.27 1.64 0 .91-.27 1.65-.27.73-.77 1.25t-1.2.8q-.7.27-1.56.27-.86 0-1.57-.27-.7-.28-1.2-.8t-.77-1.25q-.28-.74-.28-1.65 0-.91.28-1.64.27-.74.77-1.25t1.2-.79q.71-.27 1.57-.27Zm0 6.5q.96 0 1.42-.65.47-.64.47-1.89 0-1.24-.47-1.9-.46-.65-1.42-.65-.97 0-1.44.66t-.47 1.89q0 1.24.47 1.89.47.65 1.44.65Zm8.03-2.73q.34 0 .6-.09.25-.09.42-.26.17-.16.26-.4.08-.23.08-.5 0-.58-.34-.91-.34-.33-1.02-.33-.68 0-1.03.33-.34.33-.34.91 0 .27.09.5.08.23.25.4.17.17.43.26t.6.09Zm2.09 4.38q0-.22-.13-.36-.14-.14-.37-.22-.23-.08-.55-.12-.31-.04-.66-.06-.34-.01-.72-.03-.37-.01-.72-.06-.31.17-.5.41-.19.23-.19.53 0 .21.1.38.1.18.32.31.23.12.58.2.35.07.86.07.52 0 .89-.08.38-.08.62-.22t.36-.33q.11-.19.11-.42Zm-.37-7.77h2.21v.69q0 .33-.39.4l-.69.13q.15.4.15.87 0 .57-.22 1.03-.23.46-.64.79-.4.32-.95.49-.55.18-1.19.18-.23 0-.44-.02l-.41-.06q-.36.22-.36.49 0 .23.21.34.22.11.57.15.35.04.8.06.45.01.92.05.48.03.93.13.45.09.8.29.35.21.57.55.21.35.21.9 0 .51-.25.99t-.73.86q-.47.37-1.17.6-.69.23-1.58.23-.87 0-1.51-.17-.65-.17-1.08-.45-.42-.28-.63-.65-.21-.37-.21-.77 0-.53.32-.9.33-.36.9-.58-.31-.16-.49-.42t-.18-.69q0-.17.07-.36.06-.18.18-.36.13-.18.31-.34.19-.16.45-.29-.59-.31-.92-.84-.34-.52-.34-1.23 0-.57.23-1.03.23-.46.64-.79.41-.32.97-.5.56-.17 1.22-.17.49 0 .93.1.43.1.79.3Zm6.79-.38q.86 0 1.56.27.7.28 1.2.79t.77 1.25q.27.73.27 1.64 0 .91-.27 1.65-.27.73-.77 1.25t-1.2.8q-.7.27-1.56.27-.86 0-1.57-.27-.7-.28-1.2-.8t-.77-1.25q-.28-.74-.28-1.65 0-.91.28-1.64.27-.74.77-1.25t1.2-.79q.71-.27 1.57-.27Zm0 6.5q.96 0 1.42-.65.46-.64.46-1.89 0-1.24-.46-1.9-.46-.65-1.42-.65-.97 0-1.44.66t-.47 1.89q0 1.24.47 1.89.47.65 1.44.65Zm10.71-4.13v3.45q.32.38.69.54.37.15.8.15.42 0 .76-.15.34-.16.57-.48.24-.33.37-.82.13-.49.13-1.16 0-.67-.11-1.14-.11-.47-.32-.76-.2-.29-.49-.43-.28-.14-.65-.14-.58 0-.98.25-.41.24-.77.69Zm-.25-1.92.15.72q.48-.54 1.08-.87.6-.33 1.41-.33.63 0 1.15.27.52.26.9.76t.58 1.23q.21.73.21 1.67 0 .87-.23 1.6-.24.74-.67 1.28-.43.54-1.04.84-.61.3-1.37.3-.64 0-1.1-.2-.46-.19-.82-.55v3.15h-1.85v-10.2h1.13q.36 0 .47.33Zm6.94-3.78h1.85v11.14h-1.85v-11.14Zm7.77 9.15v-1.29q-.8.03-1.35.13-.55.11-.88.26-.33.16-.47.37-.14.21-.14.46 0 .49.29.7.28.2.75.2.57 0 .99-.2.41-.21.81-.63Zm-3.92-4.04-.33-.59q1.33-1.22 3.2-1.22.67 0 1.21.22.53.23.9.62.36.39.56.94.19.55.19 1.2v4.86h-.84q-.27 0-.41-.08-.14-.08-.22-.32l-.17-.55q-.29.26-.57.46-.28.2-.58.33-.29.14-.64.21-.34.07-.75.07-.49 0-.9-.13-.41-.13-.71-.39-.3-.27-.47-.66-.16-.39-.16-.9 0-.3.09-.59.1-.28.32-.55.22-.26.58-.49.35-.23.86-.41.52-.17 1.2-.28.68-.11 1.56-.13v-.45q0-.77-.33-1.14-.33-.38-.95-.38-.45 0-.75.11-.3.1-.52.24-.22.13-.41.23-.18.11-.41.11-.19 0-.33-.1-.13-.1-.22-.24Zm13.47-.71-.49.67q-.08.11-.16.17-.08.06-.23.06-.14 0-.28-.09-.13-.08-.32-.19t-.45-.2q-.26-.08-.64-.08-.49 0-.85.17-.37.18-.61.51-.25.33-.37.8-.12.46-.12 1.06 0 .61.13 1.09.13.48.38.81.25.32.6.49.35.17.8.17.44 0 .71-.11.28-.1.46-.24.19-.13.33-.24.14-.1.31-.1.23 0 .34.17l.53.67q-.31.36-.67.61-.36.24-.74.39-.39.14-.8.2-.41.06-.81.06-.71 0-1.34-.26-.63-.27-1.11-.78-.47-.51-.74-1.25-.28-.74-.28-1.68 0-.85.25-1.57.24-.73.71-1.26.48-.52 1.17-.82.7-.3 1.61-.3.86 0 1.51.27.65.28 1.17.8Zm2.69 2.01h3.49q0-.36-.1-.68-.1-.32-.3-.56-.2-.24-.51-.38-.32-.14-.73-.14-.8 0-1.26.46-.46.46-.59 1.3Zm4.73 1.12h-4.77q.05.59.21 1.02.17.43.44.71.27.28.64.42.37.14.82.14.45 0 .78-.11.32-.1.57-.23.24-.12.42-.23.19-.1.36-.1.23 0 .34.17l.54.67q-.31.36-.69.61-.39.24-.8.39-.42.14-.85.2t-.83.06q-.81 0-1.5-.26-.69-.27-1.2-.79t-.8-1.29q-.29-.77-.29-1.78 0-.79.25-1.48.26-.7.73-1.21.48-.51 1.17-.81.68-.3 1.55-.3.72 0 1.34.23.61.23 1.05.68.45.44.7 1.09.25.65.25 1.48 0 .42-.09.57-.09.15-.34.15Zm3.67-7.53v4.27q.45-.42.99-.68.54-.26 1.27-.26.63 0 1.11.21.49.21.82.6.32.39.49.92.17.54.17 1.18v4.9h-1.85v-4.9q0-.7-.32-1.09-.33-.39-.99-.39-.47 0-.9.22-.42.22-.79.6v5.56h-1.85v-11.14h1.85Zm10.01 3.33q.86 0 1.56.27.7.28 1.2.79t.77 1.25q.27.73.27 1.64 0 .91-.27 1.65-.27.73-.77 1.25t-1.2.8q-.7.27-1.56.27-.86 0-1.56-.27-.71-.28-1.21-.8t-.77-1.25q-.27-.74-.27-1.65 0-.91.27-1.64.27-.74.77-1.25t1.21-.79q.7-.27 1.56-.27Zm0 6.5q.96 0 1.42-.65.47-.64.47-1.89 0-1.24-.47-1.9-.46-.65-1.42-.65-.97 0-1.44.66t-.47 1.89q0 1.24.47 1.89.47.65 1.44.65Zm5.24-9.83h1.85v11.14h-1.85v-11.14Zm8.53 8.86v-3.45q-.31-.38-.68-.54-.38-.16-.8-.16-.42 0-.76.16t-.58.48q-.24.32-.37.81-.12.49-.12 1.16 0 .67.11 1.14.1.47.31.76.2.3.49.43.3.13.66.13.57 0 .98-.24.4-.24.76-.68Zm0-8.86h1.85v11.14h-1.13q-.37 0-.46-.34l-.16-.74q-.47.53-1.07.86-.6.33-1.41.33-.63 0-1.15-.26-.53-.26-.9-.76-.38-.5-.59-1.24-.21-.73-.21-1.67 0-.86.24-1.6.23-.73.66-1.27.44-.54 1.05-.84.61-.31 1.36-.31.65 0 1.11.21.45.2.81.54v-4.05Zm5.15 6.41h3.49q0-.36-.1-.68-.1-.32-.3-.56-.2-.24-.52-.38-.31-.14-.72-.14-.8 0-1.26.46-.46.46-.59 1.3Zm4.72 1.12h-4.76q.04.59.21 1.02.17.43.44.71.27.28.64.42.37.14.82.14.45 0 .77-.11.33-.1.57-.23.25-.12.43-.23.19-.1.36-.1.23 0 .34.17l.54.67q-.31.36-.69.61-.39.24-.8.39-.42.14-.85.2t-.84.06q-.8 0-1.49-.26-.69-.27-1.2-.79t-.8-1.29q-.3-.77-.3-1.78 0-.79.26-1.48.26-.7.73-1.21.48-.51 1.16-.81.69-.3 1.55-.3.73 0 1.34.23.62.23 1.06.68.44.44.7 1.09.25.65.25 1.48 0 .42-.09.57-.09.15-.35.15Zm3.46-3.62.11.87q.36-.69.86-1.08.49-.4 1.17-.4.53 0 .85.24l-.12 1.38q-.04.14-.11.19-.07.06-.19.06-.11 0-.33-.04-.22-.03-.43-.03-.31 0-.55.08-.24.09-.43.26t-.34.41q-.14.24-.27.55v4.74h-1.86v-7.69h1.09q.29 0 .4.1.11.1.15.36Z"/></svg>